<?xml version="1.0" encoding="UTF-8" standalone="no"?>
<!DOCTYPE svg PUBLIC "-//W3C//DTD SVG 1.1//EN" "http://www.w3.org/Graphics/SVG/1.1/DTD/svg11.dtd">
<svg width="100%" height="100%" viewBox="0 0 685 459" version="1.1" xmlns="http://www.w3.org/2000/svg" xmlns:xlink="http://www.w3.org/1999/xlink" xml:space="preserve" xmlns:serif="http://www.serif.com/" style="fill-rule:evenodd;clip-rule:evenodd;stroke-linejoin:round;stroke-miterlimit:2;">
    <g transform="matrix(1,0,0,1,-198,-312)">
        <g transform="matrix(1,0,0,1,17.5002,-67.9642)">
            <g transform="matrix(1.14257,0,0,1.14257,39.2845,344.869)">
                <path d="M308.949,277.034L308.949,388.177C308.949,407.567 293.206,423.31 273.816,423.31L162.673,423.31C143.283,423.31 127.54,407.567 127.54,388.177L127.54,277.034C127.54,257.644 143.283,241.901 162.673,241.901L273.816,241.901C293.206,241.901 308.949,257.644 308.949,277.034ZM294.945,277.034C294.945,265.372 285.478,255.905 273.816,255.905L162.673,255.905C151.011,255.905 141.544,265.372 141.544,277.034L141.544,388.177C141.544,399.839 151.011,409.306 162.673,409.306L273.816,409.306C285.478,409.306 294.945,399.839 294.945,388.177L294.945,277.034Z" style="fill:white;"/>
            </g>
            <g transform="matrix(1.14257,0,0,1.14257,273.141,111.012)">
                <path d="M308.949,277.034L308.949,388.177C308.949,407.567 293.206,423.31 273.816,423.31L162.673,423.31C143.283,423.31 127.54,407.567 127.54,388.177L127.54,277.034C127.54,257.644 143.283,241.901 162.673,241.901L273.816,241.901C293.206,241.901 308.949,257.644 308.949,277.034ZM294.945,277.034C294.945,265.372 285.478,255.905 273.816,255.905L162.673,255.905C151.011,255.905 141.544,265.372 141.544,277.034L141.544,388.177C141.544,399.839 151.011,409.306 162.673,409.306L273.816,409.306C285.478,409.306 294.945,399.839 294.945,388.177L294.945,277.034Z" style="fill:white;"/>
            </g>
            <g transform="matrix(1.14257,0,0,1.14257,273.141,344.869)">
                <path d="M308.949,277.034L308.949,388.177C308.949,407.567 293.206,423.31 273.816,423.31L162.673,423.31C143.283,423.31 127.54,407.567 127.54,388.177L127.54,277.034C127.54,257.644 143.283,241.901 162.673,241.901L273.816,241.901C293.206,241.901 308.949,257.644 308.949,277.034ZM294.945,277.034C294.945,265.372 285.478,255.905 273.816,255.905L162.673,255.905C151.011,255.905 141.544,265.372 141.544,277.034L141.544,388.177C141.544,399.839 151.011,409.306 162.673,409.306L273.816,409.306C285.478,409.306 294.945,399.839 294.945,388.177L294.945,277.034Z" style="fill:white;"/>
            </g>
            <g transform="matrix(1.14257,0,0,1.14257,506.997,344.869)">
                <path d="M308.949,277.034L308.949,388.177C308.949,407.567 293.206,423.31 273.816,423.31L162.673,423.31C143.283,423.31 127.54,407.567 127.54,388.177L127.54,277.034C127.54,257.644 143.283,241.901 162.673,241.901L273.816,241.901C293.206,241.901 308.949,257.644 308.949,277.034ZM294.945,277.034C294.945,265.372 285.478,255.905 273.816,255.905L162.673,255.905C151.011,255.905 141.544,265.372 141.544,277.034L141.544,388.177C141.544,399.839 151.011,409.306 162.673,409.306L273.816,409.306C285.478,409.306 294.945,399.839 294.945,388.177L294.945,277.034Z" style="fill:white;"/>
            </g>
            <g transform="matrix(4.61252,0,0,4.61252,113.938,-2383.26)">
                <path d="M100.178,614.583L95.819,631.716L91.682,631.716L89.362,622.716C89.315,622.544 89.252,622.282 89.174,621.931C89.096,621.579 89.014,621.194 88.928,620.776C88.842,620.358 88.766,619.964 88.7,619.593C88.633,619.222 88.588,618.927 88.565,618.708C88.541,618.927 88.496,619.22 88.43,619.587C88.364,619.954 88.289,620.345 88.207,620.759C88.125,621.173 88.045,621.559 87.967,621.919C87.889,622.278 87.827,622.552 87.78,622.739L85.471,631.716L81.346,631.716L76.975,614.583L80.549,614.583L82.741,623.934C82.803,624.216 82.875,624.552 82.957,624.942C83.039,625.333 83.121,625.741 83.204,626.167C83.286,626.593 83.36,627.003 83.426,627.397C83.493,627.792 83.541,628.134 83.573,628.423C83.612,628.126 83.663,627.78 83.725,627.386C83.788,626.991 83.856,626.589 83.93,626.179C84.004,625.768 84.08,625.388 84.159,625.036C84.237,624.684 84.307,624.399 84.37,624.181L86.866,614.583L90.299,614.583L92.795,624.181C92.85,624.392 92.914,624.675 92.989,625.03C93.063,625.386 93.139,625.77 93.217,626.184C93.295,626.599 93.368,627.003 93.434,627.397C93.5,627.792 93.549,628.134 93.58,628.423C93.635,628.032 93.711,627.558 93.809,626.999C93.907,626.44 94.012,625.884 94.125,625.329C94.239,624.774 94.338,624.309 94.424,623.934L96.604,614.583L100.178,614.583Z" style="fill:white;"/>
            </g>
            <g transform="matrix(4.61252,0,0,4.61252,-104.594,-2149.24)">
                <path d="M89.62,631.716L88.377,627.638L82.131,627.638L80.889,631.716L76.975,631.716L83.022,614.513L87.463,614.513L93.534,631.716L89.62,631.716ZM87.51,624.591L86.268,620.606C86.19,620.341 86.086,619.999 85.957,619.581C85.829,619.163 85.7,618.737 85.571,618.304C85.442,617.87 85.338,617.493 85.26,617.173C85.182,617.493 85.075,617.89 84.938,618.362C84.801,618.835 84.67,619.282 84.545,619.704C84.42,620.126 84.33,620.427 84.276,620.606L83.045,624.591L87.51,624.591Z" style="fill:white;"/>
            </g>
            <g transform="matrix(4.61252,0,0,4.61252,136.613,-2149.37)">
                <path d="M89.245,626.958C89.245,627.974 88.998,628.856 88.506,629.606C88.014,630.356 87.297,630.934 86.356,631.341C85.414,631.747 84.272,631.95 82.928,631.95C82.334,631.95 81.754,631.911 81.188,631.833C80.621,631.755 80.079,631.64 79.559,631.487C79.039,631.335 78.545,631.145 78.077,630.919L78.077,627.544C78.889,627.903 79.733,628.227 80.608,628.517C81.483,628.806 82.35,628.95 83.209,628.95C83.803,628.95 84.282,628.872 84.645,628.716C85.008,628.559 85.272,628.345 85.436,628.071C85.6,627.798 85.682,627.485 85.682,627.134C85.682,626.704 85.538,626.337 85.248,626.032C84.959,625.727 84.563,625.442 84.059,625.177C83.555,624.911 82.987,624.626 82.354,624.321C81.955,624.134 81.522,623.905 81.053,623.636C80.584,623.366 80.139,623.036 79.717,622.645C79.295,622.255 78.95,621.78 78.68,621.222C78.411,620.663 78.276,619.993 78.276,619.212C78.276,618.188 78.51,617.313 78.979,616.587C79.448,615.86 80.118,615.304 80.989,614.917C81.86,614.53 82.889,614.337 84.077,614.337C84.967,614.337 85.817,614.44 86.625,614.647C87.434,614.854 88.28,615.153 89.163,615.544L87.991,618.368C87.202,618.048 86.495,617.8 85.87,617.624C85.245,617.448 84.608,617.36 83.959,617.36C83.506,617.36 83.12,617.433 82.799,617.577C82.479,617.722 82.237,617.925 82.073,618.186C81.909,618.448 81.827,618.751 81.827,619.095C81.827,619.501 81.946,619.843 82.184,620.12C82.422,620.397 82.782,620.665 83.262,620.923C83.743,621.181 84.342,621.481 85.061,621.825C85.936,622.239 86.684,622.671 87.305,623.12C87.926,623.569 88.405,624.097 88.741,624.702C89.077,625.308 89.245,626.059 89.245,626.958Z" style="fill:white;"/>
            </g>
            <g transform="matrix(4.61252,0,0,4.61252,358.578,-2149.4)">
                <path d="M93.346,622.985C93.346,624.915 92.977,626.526 92.239,627.819C91.5,629.112 90.432,630.085 89.034,630.737C87.635,631.39 85.952,631.716 83.983,631.716L79.131,631.716L79.131,614.583L84.51,614.583C86.307,614.583 87.866,614.901 89.186,615.538C90.506,616.175 91.53,617.116 92.256,618.362C92.983,619.608 93.346,621.149 93.346,622.985ZM89.573,623.079C89.573,621.813 89.387,620.772 89.016,619.956C88.645,619.14 88.098,618.536 87.375,618.145C86.653,617.755 85.76,617.559 84.698,617.559L82.764,617.559L82.764,628.716L84.323,628.716C86.096,628.716 87.414,628.243 88.278,627.298C89.141,626.352 89.573,624.946 89.573,623.079Z" style="fill:white;"/>
            </g>
        </g>
    </g>
</svg>
